<svg preserveAspectRatio="none" overflow="visible" style="display: block;" width="103.2" height="60.3999" viewBox="0 0 103.2 60.3999" fill="none" xmlns="http://www.w3.org/2000/svg">
<g id="Clip path group">
<mask id="mask0_0_390" style="mask-type:luminance" maskUnits="userSpaceOnUse" x="0" y="0" width="104" height="61">
<g id="SVGID_00000132797332655890823170000012940989187201512618_">
<path id="Vector" d="M103.2 0H0V60.3999H103.2V0Z" fill="white"/>
</g>
</mask>
<g mask="url(#mask0_0_390)">
<path id="Vector_2" d="M15.3 13C15.3 16.4 14 18 9.29999 18H6.60001V6.59961H9.39999C14.4 6.59961 15.3 8.3998 15.3 11.7998V13ZM15.8 23C20.1 21.6 22 18.6999 22 13.3999V11.5C22 3.9 17.9 0.699707 9.20001 0.699707H0.100006V27.6997L0.5 28.1997C0.5 28.1997 0.500006 28.1998 0.600006 28.2998C0.700006 28.3998 0.699994 28.4996 0.899994 28.5996C1.19999 28.8996 1.50001 29.1997 2.10001 29.6997C2.50001 29.9997 3.00001 30.4999 3.70001 30.8999C4.10001 31.0999 4.50001 31.3997 5.10001 31.6997C5.50001 31.8997 6.10001 32.2 6.60001 32.5V24.0996H9L15.5 35.6997C16.1 35.8997 16.8 35.9996 17.5 36.0996C18.5 36.2996 19.5 36.4996 20.5 36.5996C21 36.6996 21.6 36.6998 22.1 36.7998H23.6L15.8 23Z" fill="#446E04"/>
</g>
</g>
</svg>
