<svg width="93" height="93" viewBox="0 0 93 93" fill="none" xmlns="http://www.w3.org/2000/svg">
<g id="&#208;&#155;&#208;&#181;&#208;&#189;&#208;&#180;&#208;&#184;&#208;&#189;&#208;&#179; 23 &#208;&#179;&#208;&#190;&#208;&#180;&#208;&#176;" clip-path="url(#clip0_0_1)">
<g id="Group 9031">
<g id="Group 9030">
<g id="Group">
<path id="Vector" d="M92.3847 28.5371C92.3847 27.7399 92.3847 26.8627 92.305 26.0656C92.2253 24.5511 92.0658 23.0364 91.9861 21.5219C91.9064 20.4059 91.747 19.2906 91.5079 18.1747C91.1891 16.2616 90.7108 14.4283 90.0731 12.5949C89.0368 9.96446 87.6818 7.57298 85.5296 5.65993C84.4136 4.7034 83.218 3.90629 81.9426 3.26861C80.6672 2.63092 79.3919 2.15234 78.0368 1.75379C76.2831 1.27553 74.5295 0.87744 72.7759 0.638308C71.5802 0.478887 70.3048 0.319466 69.1092 0.239755C67.515 0.0803334 66.0005 0 64.4063 0C51.7323 0 39.138 0 26.464 0C25.7466 0.0797107 24.9494 0.159577 24.232 0.159577C22.9567 0.239288 21.6016 0.398709 20.3262 0.558131C19.5291 0.637841 18.732 0.797263 17.9349 0.956684C16.5798 1.19582 15.3045 1.51481 14.0291 1.91337C12.3552 2.39163 10.7609 3.10872 9.24645 3.98553C7.89136 4.86235 6.61599 5.81919 5.57975 7.09456C4.70293 8.1308 3.90583 9.32677 3.26814 10.6021C2.63046 11.8775 2.1522 13.2326 1.75365 14.5877C1.11596 16.7399 0.717401 18.9716 0.478269 21.2035C0.318848 22.3992 0.239142 23.5948 0.159431 24.7905C0.0797204 26.1456 0 27.5003 0 28.8554C0 40.1743 0 51.5731 0 62.8921C0 63.3703 0.0797156 63.8484 0.0797156 64.3267C0.159426 65.6021 0.159436 66.9575 0.239147 68.2328C0.318857 69.0299 0.318843 69.827 0.398553 70.6241C0.637686 72.2184 0.797102 73.7327 1.11594 75.2472C1.5145 77.3994 2.1522 79.3923 3.02902 81.3851C4.06526 83.6967 5.57975 85.689 7.57252 87.2832C9.16673 88.4789 10.9204 89.4354 12.7537 90.0731C14.5871 90.7108 16.4204 91.1897 18.2537 91.5085C20.2465 91.8273 22.2393 92.066 24.232 92.2254C25.2683 92.3051 26.3045 92.3053 27.3408 92.385C28.5364 92.4647 29.7321 92.4644 30.9278 92.4644C36.5872 92.5441 42.167 92.4644 47.8264 92.4644C52.6888 92.4644 57.5511 92.5444 62.4932 92.385C64.1671 92.3053 65.841 92.3051 67.4353 92.2254C68.7903 92.1457 70.0657 92.0665 71.4208 91.9071C72.8556 91.7476 74.2107 91.5079 75.5658 91.2688C78.1962 90.7108 80.7469 89.9141 83.0586 88.5591C84.6528 87.6025 86.0078 86.4863 87.2035 85.0515C88.5586 83.3775 89.5151 81.5447 90.2325 79.5519C91.189 76.8417 91.6673 73.9717 92.0659 71.1021C92.2253 69.8267 92.305 68.5515 92.3847 67.2761C92.4644 65.7616 92.5441 64.247 92.5441 62.7325C92.3847 51.4136 92.5441 39.9357 92.3847 28.5371Z" fill="#446E04"/>
<path id="Vector_2" d="M67.0367 46.631C56.1163 52.9282 45.2757 59.2258 34.3553 65.4432V27.7402C45.2757 34.1171 56.1163 40.3339 67.0367 46.631Z" fill="#F1FFA4"/>
</g>
</g>
</g>
</g>
<defs>
<clipPath id="clip0_0_1">
<rect width="850" height="7196" fill="white" transform="translate(-317.191 -6728.86)"/>
</clipPath>
</defs>
</svg>
